<?xml version="1.0" encoding="utf-8"?>
<!-- Generator: Adobe Illustrator 16.0.0, SVG Export Plug-In . SVG Version: 6.00 Build 0)  -->
<!DOCTYPE svg PUBLIC "-//W3C//DTD SVG 1.1//EN" "http://www.w3.org/Graphics/SVG/1.1/DTD/svg11.dtd">
<svg version="1.1" id="Ñëîé_1" xmlns="http://www.w3.org/2000/svg" xmlns:xlink="http://www.w3.org/1999/xlink" x="0px" y="0px"
	 width="567.882px" height="567.883px" viewBox="0 0 567.882 567.883" enable-background="new 0 0 567.882 567.883"
	 xml:space="preserve">
<g>
	<g>
		<linearGradient id="SVGID_1_" gradientUnits="userSpaceOnUse" x1="283.9414" y1="567.8828" x2="283.9414" y2="4.882813e-004">
			<stop  offset="0" style="stop-color:#A7A7A7"/>
			<stop  offset="1" style="stop-color:#E2E2E2"/>
		</linearGradient>
		<circle fill="url(#SVGID_1_)" cx="283.941" cy="283.941" r="283.941"/>
		<linearGradient id="SVGID_2_" gradientUnits="userSpaceOnUse" x1="68.5493" y1="464.6758" x2="499.3321" y2="103.2061">
			<stop  offset="0" style="stop-color:#A7A7A7"/>
			<stop  offset="0.2341" style="stop-color:#E2E2E2"/>
			<stop  offset="0.4881" style="stop-color:#181818"/>
			<stop  offset="0.7738" style="stop-color:#E2E2E2"/>
			<stop  offset="0.9702" style="stop-color:#BFBDBE"/>
		</linearGradient>
		<path fill="url(#SVGID_2_)" d="M283.94,565.09c-75.097,0-145.7-29.244-198.802-82.346C32.036,429.641,2.792,359.039,2.792,283.941
			c0-75.098,29.245-145.701,82.347-198.803C138.24,32.037,208.843,2.792,283.94,2.792c75.098,0,145.701,29.245,198.802,82.346
			c53.103,53.102,82.348,123.705,82.348,198.803c0,75.098-29.245,145.7-82.348,198.803
			C429.641,535.846,359.039,565.09,283.94,565.09z"/>
		<linearGradient id="SVGID_3_" gradientUnits="userSpaceOnUse" x1="283.9414" y1="546.4805" x2="283.9414" y2="21.4038">
			<stop  offset="0" style="stop-color:#E2E2E2"/>
			<stop  offset="1" style="stop-color:#A7A7A7"/>
		</linearGradient>
		<path fill="url(#SVGID_3_)" d="M283.94,546.48c-70.126,0-136.055-27.311-185.642-76.896
			c-49.586-49.588-76.896-115.516-76.896-185.643c0-70.127,27.309-136.055,76.896-185.642
			c49.587-49.587,115.516-76.896,185.642-76.896c70.127,0,136.056,27.308,185.642,76.896
			c49.587,49.587,76.896,115.515,76.896,185.642c0,70.127-27.31,136.055-76.896,185.643
			C419.997,519.17,354.068,546.48,283.94,546.48z"/>
		<path fill="#AAAAAA" d="M283.94,537.174c-67.641,0-131.232-26.342-179.062-74.17c-47.829-47.83-74.17-111.422-74.17-179.063
			s26.341-131.233,74.17-179.062c47.829-47.83,111.421-74.17,179.062-74.17c67.641,0,131.233,26.341,179.062,74.17
			c47.829,47.83,74.171,111.421,74.171,179.063s-26.342,131.233-74.171,179.063S351.582,537.174,283.94,537.174z"/>
		<radialGradient id="SVGID_4_" cx="283.9409" cy="283.9414" r="251.3711" gradientUnits="userSpaceOnUse">
			<stop  offset="0.2897" style="stop-color:#FF0500"/>
			<stop  offset="0.4177" style="stop-color:#FC0500"/>
			<stop  offset="0.5229" style="stop-color:#F20500"/>
			<stop  offset="0.62" style="stop-color:#E00500"/>
			<stop  offset="0.7123" style="stop-color:#C80401"/>
			<stop  offset="0.8011" style="stop-color:#A90401"/>
			<stop  offset="0.8874" style="stop-color:#830301"/>
			<stop  offset="0.97" style="stop-color:#560202"/>
			<stop  offset="1" style="stop-color:#440202"/>
		</radialGradient>
		<path fill="url(#SVGID_4_)" d="M283.94,535.313c-67.143,0-130.268-26.146-177.746-73.625S32.57,351.086,32.57,283.941
			c0-67.144,26.147-130.269,73.625-177.746C153.672,58.717,216.797,32.57,283.94,32.57c67.144,0,130.269,26.147,177.746,73.625
			c47.479,47.479,73.626,110.604,73.626,177.747c0,67.143-26.147,130.268-73.626,177.747
			C414.209,509.166,351.084,535.313,283.94,535.313z"/>
		<linearGradient id="SVGID_5_" gradientUnits="userSpaceOnUse" x1="283.9414" y1="563.2305" x2="283.9414" y2="4.6533">
			<stop  offset="0.0298" style="stop-color:#BFBDBE"/>
			<stop  offset="0.3095" style="stop-color:#010101"/>
			<stop  offset="0.6627" style="stop-color:#010101"/>
			<stop  offset="0.7659" style="stop-color:#E2E2E2"/>
			<stop  offset="1" style="stop-color:#CACACA"/>
		</linearGradient>
		<path fill="url(#SVGID_5_)" d="M283.94,563.23c-74.6,0-144.735-29.051-197.486-81.803c-52.75-52.75-81.801-122.887-81.801-197.487
			c0-74.601,29.051-144.736,81.801-197.486C139.205,33.704,209.34,4.653,283.94,4.653c74.601,0,144.737,29.051,197.487,81.802
			c52.75,52.75,81.802,122.886,81.802,197.486c0,74.6-29.052,144.737-81.802,197.487C428.677,534.18,358.542,563.23,283.94,563.23z
			 M283.94,19.542c-70.624,0-137.02,27.502-186.958,77.44c-49.938,49.938-77.44,116.334-77.44,186.958
			c0,70.624,27.502,137.02,77.44,186.959c49.938,49.938,116.335,77.439,186.958,77.439c70.624,0,137.02-27.502,186.958-77.439
			c49.939-49.939,77.441-116.336,77.441-186.959s-27.502-137.02-77.441-186.958C420.961,47.044,354.565,19.542,283.94,19.542z"/>
		<linearGradient id="SVGID_6_" gradientUnits="userSpaceOnUse" x1="283.4707" y1="561.3691" x2="283.4707" y2="321.3848">
			<stop  offset="0" style="stop-color:#010101"/>
			<stop  offset="0.1713" style="stop-color:#515151"/>
			<stop  offset="0.5516" style="stop-color:#FFFFFF"/>
			<stop  offset="0.996" style="stop-color:#B8B8B8"/>
		</linearGradient>
		<path fill="url(#SVGID_6_)" d="M545.972,331.521c-9.51,53.01-34.872,101.809-73.758,140.695
			c-50.29,50.289-117.153,77.984-188.274,77.984c-71.12,0-137.984-27.695-188.274-77.986
			c-40.361-40.361-66.152-91.402-74.77-146.746c-4.008-1.332-7.964-2.695-11.873-4.084c8.034,59.906,35.28,115.262,78.746,158.729
			c52.399,52.398,122.068,81.256,196.17,81.256c74.104,0,143.772-28.857,196.171-81.256c41.901-41.904,68.729-94.854,77.805-152.279
			C553.979,329.09,549.999,330.32,545.972,331.521z"/>
		<linearGradient id="SVGID_7_" gradientUnits="userSpaceOnUse" x1="283.0381" y1="154.8735" x2="283.0381" y2="6.855">
			<stop  offset="0.2579" style="stop-color:#FFFFFF"/>
			<stop  offset="1" style="stop-color:#B4B4B4"/>
		</linearGradient>
		<path fill="url(#SVGID_7_)" d="M53.834,150.113c11.418-19.515,25.421-37.693,41.833-54.104
			c50.29-50.291,117.154-77.986,188.274-77.986c71.121,0,137.984,27.696,188.274,77.985c15.555,15.555,28.939,32.701,40.018,51.063
			c5.228,1.435,10.373,2.917,15.428,4.447c-12.568-23.006-28.494-44.352-47.548-63.406C427.712,35.712,358.044,6.855,283.94,6.855
			c-74.103,0-143.771,28.857-196.17,81.256c-19.979,19.979-36.519,42.474-49.354,66.763
			C43.461,153.238,48.602,151.65,53.834,150.113z"/>
		<g>
			<path fill="#A30512" d="M283.941,438.445c-79.733,0-144.601-64.867-144.601-144.601c0-31.463,9.931-61.375,28.72-86.504
				c17.79-23.795,43.088-41.932,71.233-51.07l6.676-2.167l7.014,44.098l-4.563,1.731c-38.807,14.729-64.88,52.47-64.88,93.912
				c0,55.361,45.039,100.4,100.4,100.4c55.36,0,100.399-45.039,100.399-100.4c0-41.443-26.073-79.183-64.88-93.912l-4.563-1.731
				l7.015-44.099l6.675,2.167c28.146,9.138,53.444,27.275,71.234,51.07c18.788,25.128,28.72,55.041,28.72,86.504
				C428.542,373.578,363.673,438.445,283.941,438.445z M260.441,305.998V120.39h44.199v185.608H260.441z"/>
			<path fill="#A3041F" d="M283.941,435.445c-78.079,0-141.601-63.521-141.601-141.601c0-30.811,9.725-60.102,28.122-84.708
				c17.423-23.304,42.197-41.065,69.758-50.013l3.338-1.083l6.079,38.222l-2.281,0.866c-39.964,15.168-66.815,54.036-66.815,96.717
				c0,57.015,46.385,103.4,103.4,103.4c57.014,0,103.399-46.385,103.399-103.4c0-42.682-26.852-81.549-66.814-96.716l-2.282-0.866
				l6.079-38.223l3.338,1.083c27.562,8.948,52.336,26.71,69.76,50.013c18.396,24.606,28.121,53.898,28.121,84.708
				C425.542,371.924,362.019,435.445,283.941,435.445z M263.441,302.998V123.39h38.199v179.608H263.441z"/>
			<path fill="#EDEDED" d="M283.941,432.443c-76.424,0-138.6-62.174-138.6-138.599c0-30.158,9.518-58.828,27.524-82.912
				c17.087-22.854,41.288-40.191,68.283-48.956l5.145,32.346c-41.17,15.625-68.751,55.472-68.751,99.521
				c0,58.669,47.731,106.4,106.4,106.4c58.67,0,106.4-47.73,106.4-106.4c0-44.05-27.582-83.896-68.751-99.521l5.145-32.347
				c26.995,8.765,51.195,26.103,68.282,48.956c18.006,24.083,27.524,52.754,27.524,82.912
				C422.542,370.27,360.366,432.443,283.941,432.443z M298.641,299.998V126.39h-32.2v173.608H298.641z"/>
			<g>
				<path fill="#D1D1D1" d="M295.941,408.244c58.67,0,106.4-47.73,106.4-106.4c0-38.485-21.056-73.759-53.83-92.478
					c25.817,19.829,41.83,50.928,41.83,84.478c0,58.669-47.73,106.4-106.4,106.4c-19.162,0-37.156-5.094-52.703-13.996
					C249.179,400.035,271.618,408.244,295.941,408.244z"/>
				<path fill="#D1D1D1" d="M338.735,169.977c9.686,3.145,19.002,7.41,27.77,12.621c-12.059-8.957-25.518-15.994-39.77-20.621
					l-5.145,32.347c4.279,1.625,8.403,3.525,12.373,5.65L338.735,169.977z"/>
				<polygon fill="#D1D1D1" points="278.441,134.39 298.641,134.39 298.641,126.39 266.441,126.39 266.441,299.998 278.441,299.998 
									"/>
				<path fill="#D1D1D1" d="M157.341,301.844c0-30.158,9.518-58.828,27.524-82.912c14.919-19.954,35.261-35.7,58.151-45.209
					l-1.868-11.747c-26.996,8.765-51.196,26.103-68.283,48.956c-18.006,24.083-27.524,52.754-27.524,82.912
					c0,50.644,27.31,95.023,67.97,119.207C179.367,387.764,157.341,347.33,157.341,301.844z"/>
			</g>
		</g>
		<g>
			<defs>
				<filter id="Adobe_OpacityMaskFilter" filterUnits="userSpaceOnUse" x="42.599" y="44.788" width="482.684" height="252.963">
					<feColorMatrix  type="matrix" values="1 0 0 0 0  0 1 0 0 0  0 0 1 0 0  0 0 0 1 0"/>
				</filter>
			</defs>
			<mask maskUnits="userSpaceOnUse" x="42.599" y="44.788" width="482.684" height="252.963" id="SVGID_8_">
				<g filter="url(#Adobe_OpacityMaskFilter)">
					<linearGradient id="SVGID_9_" gradientUnits="userSpaceOnUse" x1="283.9409" y1="297.8921" x2="283.9409" y2="44.6475">
						<stop  offset="0" style="stop-color:#3D3D3D"/>
						<stop  offset="0.5647" style="stop-color:#393939"/>
						<stop  offset="1" style="stop-color:#303030"/>
					</linearGradient>
					<path fill="url(#SVGID_9_)" d="M510.659,297.892c-16.305,0-45.11-10.105-81.578-22.896
						c-61.336-21.516-145.338-50.981-225.376-50.981c-66.648,0-120.818,20.932-161.005,62.212l-0.239,0.248v-0.346
						c0-64.502,25.118-125.144,70.728-170.751c45.609-45.611,106.25-70.729,170.753-70.729c64.501,0,125.143,25.118,170.752,70.728
						c45.61,45.611,70.728,106.252,70.728,170.753C525.421,294.043,520.593,297.892,510.659,297.892z"/>
				</g>
			</mask>
			<path mask="url(#SVGID_8_)" fill="#FFFFFF" d="M42.599,286.128c0-64.464,25.104-125.071,70.688-170.653
				c45.583-45.584,106.189-70.688,170.654-70.688s125.071,25.104,170.653,70.687c45.584,45.584,70.688,106.191,70.688,170.654
				C525.283,350.594,206.158,118.116,42.599,286.128z"/>
			<defs>
				<filter id="Adobe_OpacityMaskFilter_1_" filterUnits="userSpaceOnUse" x="74.397" y="389.43" width="429.697" height="130.332">
					<feColorMatrix  type="matrix" values="1 0 0 0 0  0 1 0 0 0  0 0 1 0 0  0 0 0 1 0"/>
				</filter>
			</defs>
			<mask maskUnits="userSpaceOnUse" x="74.397" y="389.43" width="429.697" height="130.332" id="SVGID_10_">
				<g filter="url(#Adobe_OpacityMaskFilter_1_)">
					<linearGradient id="SVGID_11_" gradientUnits="userSpaceOnUse" x1="289.2456" y1="519.7617" x2="289.2456" y2="389.4297">
						<stop  offset="0" style="stop-color:#303030"/>
						<stop  offset="0.1173" style="stop-color:#262626"/>
						<stop  offset="0.4223" style="stop-color:#111111"/>
						<stop  offset="0.72" style="stop-color:#040404"/>
						<stop  offset="1" style="stop-color:#000000"/>
					</linearGradient>
					<path fill="url(#SVGID_11_)" d="M485.175,410.348c-52.333,52.334-121.916,81.156-195.929,81.156
						c-74.012,0-143.594-28.822-195.93-81.158c-6.697-6.697-13.003-13.68-18.919-20.916c11.288,21.643,25.929,41.678,43.683,59.432
						c45.721,45.721,106.509,70.9,171.167,70.9c64.658,0,125.446-25.18,171.165-70.9c17.754-17.754,32.395-37.787,43.683-59.43
						C498.178,396.666,491.872,403.65,485.175,410.348z"/>
				</g>
			</mask>
			<path mask="url(#SVGID_10_)" fill="#FFFFFF" d="M485.175,410.348c-52.333,52.334-121.916,81.156-195.929,81.156
				c-74.012,0-143.594-28.822-195.93-81.158c-6.697-6.697-13.003-13.68-18.919-20.916c11.288,21.643,25.929,41.678,43.683,59.432
				c45.721,45.721,106.509,70.9,171.167,70.9c64.658,0,125.446-25.18,171.165-70.9c17.754-17.754,32.395-37.787,43.683-59.43
				C498.178,396.666,491.872,403.65,485.175,410.348z"/>
			<g>
				<defs>
					
						<filter id="Adobe_OpacityMaskFilter_2_" filterUnits="userSpaceOnUse" x="462.327" y="62.037" width="124.969" height="166.786">
						<feColorMatrix  type="matrix" values="1 0 0 0 0  0 1 0 0 0  0 0 1 0 0  0 0 0 1 0"/>
					</filter>
				</defs>
				<mask maskUnits="userSpaceOnUse" x="462.327" y="62.037" width="124.969" height="166.786" id="SVGID_12_">
					<g filter="url(#Adobe_OpacityMaskFilter_2_)">
						
							<radialGradient id="SVGID_13_" cx="1805.6577" cy="3188.627" r="106.4009" gradientTransform="matrix(-0.0692 -0.7794 0.5893 0.1395 -1229.2954 1107.9468)" gradientUnits="userSpaceOnUse">
							<stop  offset="0" style="stop-color:#FFFFFF"/>
							<stop  offset="0.0074" style="stop-color:#F6F6F6"/>
							<stop  offset="0.0477" style="stop-color:#C8C8C8"/>
							<stop  offset="0.0931" style="stop-color:#9D9D9D"/>
							<stop  offset="0.1419" style="stop-color:#777777"/>
							<stop  offset="0.195" style="stop-color:#575757"/>
							<stop  offset="0.2537" style="stop-color:#3B3B3B"/>
							<stop  offset="0.32" style="stop-color:#252525"/>
							<stop  offset="0.3974" style="stop-color:#141414"/>
							<stop  offset="0.4931" style="stop-color:#090909"/>
							<stop  offset="0.6274" style="stop-color:#020202"/>
							<stop  offset="1" style="stop-color:#000000"/>
						</radialGradient>
						<path fill="url(#SVGID_13_)" d="M587.508,160.258c4.061,45.729-20.763,76.28-55.334,68.104
							c-34.572-8.176-66.002-52.032-70.062-97.761c-4.061-45.729,20.763-76.28,55.335-68.104
							C552.019,70.673,583.448,114.528,587.508,160.258z"/>
					</g>
				</mask>
				<path mask="url(#SVGID_12_)" fill="#FFFFFF" d="M517.523,63.353c34.271,8.105,65.314,51.423,69.34,96.752
					c4.024,45.33-20.495,75.507-54.765,67.402c-34.271-8.104-65.314-51.422-69.339-96.752
					C458.734,85.424,483.253,55.248,517.523,63.353z"/>
				<defs>
					<filter id="Adobe_OpacityMaskFilter_3_" filterUnits="userSpaceOnUse" x="504.76" y="112.028" width="38.333" height="64.335">
						<feColorMatrix  type="matrix" values="1 0 0 0 0  0 1 0 0 0  0 0 1 0 0  0 0 0 1 0"/>
					</filter>
				</defs>
				<mask maskUnits="userSpaceOnUse" x="504.76" y="112.028" width="38.333" height="64.335" id="SVGID_14_">
					<g filter="url(#Adobe_OpacityMaskFilter_3_)">
						
							<radialGradient id="SVGID_15_" cx="-296.7471" cy="107632.8125" r="57.6493" gradientTransform="matrix(-0.4157 -0.7012 0.0424 -0.0368 -4163.0625 3897.0034)" gradientUnits="userSpaceOnUse">
							<stop  offset="0" style="stop-color:#8F8F8F"/>
							<stop  offset="0.1651" style="stop-color:#636363"/>
							<stop  offset="0.3304" style="stop-color:#404040"/>
							<stop  offset="0.497" style="stop-color:#242424"/>
							<stop  offset="0.6639" style="stop-color:#101010"/>
							<stop  offset="0.8312" style="stop-color:#040404"/>
							<stop  offset="1" style="stop-color:#000000"/>
						</radialGradient>
						<path fill="url(#SVGID_15_)" d="M526.257,142.171c5.092,8.586,9.653,16.857,12.842,23.289
							c5.058,10.198,4.275,10.877,4.019,11.101c-0.257,0.223-1.039,0.902-7.402-8.16c-4.015-5.716-9.029-13.593-14.12-22.18
							c-5.092-8.586-9.652-16.857-12.842-23.289c-5.057-10.198-4.275-10.877-4.018-11.1c0.256-0.224,1.039-0.903,7.402,8.16
							C516.152,125.708,521.167,133.584,526.257,142.171z"/>
					</g>
				</mask>
				<path mask="url(#SVGID_14_)" fill="#FFFFFF" d="M504.886,112.085c1.203-1.045,10.703,12.484,21.219,30.219
					c10.516,17.734,18.065,32.958,16.862,34.003c-1.203,1.045-10.703-12.484-21.22-30.219
					C511.232,128.354,503.682,113.13,504.886,112.085z"/>
				<defs>
					<filter id="Adobe_OpacityMaskFilter_4_" filterUnits="userSpaceOnUse" x="509.02" y="137.893" width="29.813" height="12.606">
						<feColorMatrix  type="matrix" values="1 0 0 0 0  0 1 0 0 0  0 0 1 0 0  0 0 0 1 0"/>
					</filter>
				</defs>
				<mask maskUnits="userSpaceOnUse" x="509.02" y="137.893" width="29.813" height="12.606" id="SVGID_16_">
					<g filter="url(#Adobe_OpacityMaskFilter_4_)">
						
							<radialGradient id="SVGID_17_" cx="-2316.7534" cy="93035.6484" r="31.6986" gradientTransform="matrix(-0.5933 -0.2361 4.000000e-004 -0.0755 -887.8183 6621.4004)" gradientUnits="userSpaceOnUse">
							<stop  offset="0" style="stop-color:#8F8F8F"/>
							<stop  offset="0.1651" style="stop-color:#636363"/>
							<stop  offset="0.3304" style="stop-color:#404040"/>
							<stop  offset="0.497" style="stop-color:#242424"/>
							<stop  offset="0.6639" style="stop-color:#101010"/>
							<stop  offset="0.8312" style="stop-color:#040404"/>
							<stop  offset="1" style="stop-color:#000000"/>
						</radialGradient>
						<path fill="url(#SVGID_17_)" d="M523.942,141.911c3.986,1.585,7.733,3.298,10.55,4.824c4.467,2.417,4.462,3.184,4.459,3.436
							c-0.001,0.252-0.006,1.018-4.481-0.12c-2.822-0.717-6.572-1.985-10.559-3.571s-7.732-3.298-10.55-4.823
							c-4.466-2.418-4.461-3.185-4.459-3.437s0.007-1.018,4.482,0.119C516.207,139.058,519.956,140.326,523.942,141.911z"/>
					</g>
				</mask>
				<path mask="url(#SVGID_16_)" fill="#FFFFFF" d="M509.02,138.267c0.008-1.179,6.688,0.52,14.921,3.794
					c8.233,3.274,14.9,6.885,14.893,8.063c-0.008,1.179-6.688-0.519-14.922-3.793C515.679,143.056,509.011,139.446,509.02,138.267z"
					/>
				<defs>
					
						<filter id="Adobe_OpacityMaskFilter_5_" filterUnits="userSpaceOnUse" x="504.429" y="126.978" width="38.994" height="34.437">
						<feColorMatrix  type="matrix" values="1 0 0 0 0  0 1 0 0 0  0 0 1 0 0  0 0 0 1 0"/>
					</filter>
				</defs>
				<mask maskUnits="userSpaceOnUse" x="504.429" y="126.978" width="38.994" height="34.437" id="SVGID_18_">
					<g filter="url(#Adobe_OpacityMaskFilter_5_)">
						
							<radialGradient id="SVGID_19_" cx="-2657.1147" cy="68058.1953" r="57.6629" gradientTransform="matrix(-0.4232 0.3674 -0.0417 -0.0702 2237.4612 5898.1045)" gradientUnits="userSpaceOnUse">
							<stop  offset="0" style="stop-color:#8F8F8F"/>
							<stop  offset="0.1651" style="stop-color:#636363"/>
							<stop  offset="0.3304" style="stop-color:#404040"/>
							<stop  offset="0.497" style="stop-color:#242424"/>
							<stop  offset="0.6639" style="stop-color:#101010"/>
							<stop  offset="0.8312" style="stop-color:#040404"/>
							<stop  offset="1" style="stop-color:#000000"/>
						</radialGradient>
						<path fill="url(#SVGID_19_)" d="M521.635,140.333c5.182-4.5,10.276-8.357,14.347-10.858c6.453-3.965,7.222-2.669,7.475-2.243
							c0.253,0.426,1.021,1.721-4.148,7.852c-3.26,3.867-7.909,8.475-13.091,12.976s-10.276,8.357-14.347,10.857
							c-6.454,3.965-7.222,2.67-7.475,2.244c-0.252-0.426-1.021-1.722,4.148-7.853C511.805,149.441,516.454,144.833,521.635,140.333
							z"/>
					</g>
				</mask>
				<path mask="url(#SVGID_18_)" fill="#FFFFFF" d="M504.549,161.028c-1.183-1.994,6.534-11.146,17.236-20.442
					c10.702-9.296,20.336-15.215,21.519-13.222c1.182,1.993-6.535,11.146-17.237,20.442
					C515.365,157.103,505.731,163.022,504.549,161.028z"/>
				<defs>
					<filter id="Adobe_OpacityMaskFilter_6_" filterUnits="userSpaceOnUse" x="521.532" y="117.123" width="4.79" height="54.147">
						<feColorMatrix  type="matrix" values="1 0 0 0 0  0 1 0 0 0  0 0 1 0 0  0 0 0 1 0"/>
					</filter>
				</defs>
				<mask maskUnits="userSpaceOnUse" x="521.532" y="117.123" width="4.79" height="54.147" id="SVGID_20_">
					<g filter="url(#Adobe_OpacityMaskFilter_6_)">
						
							<radialGradient id="SVGID_21_" cx="-1159.0718" cy="48258.3789" r="45.1391" gradientTransform="matrix(-0.0053 0.7557 -0.0593 -0.0235 3379.5051 2154.1782)" gradientUnits="userSpaceOnUse">
							<stop  offset="0" style="stop-color:#8F8F8F"/>
							<stop  offset="0.1651" style="stop-color:#636363"/>
							<stop  offset="0.3304" style="stop-color:#404040"/>
							<stop  offset="0.497" style="stop-color:#242424"/>
							<stop  offset="0.6639" style="stop-color:#101010"/>
							<stop  offset="0.8312" style="stop-color:#040404"/>
							<stop  offset="1" style="stop-color:#000000"/>
						</radialGradient>
						<path fill="url(#SVGID_21_)" d="M521.372,143.18c0.049-7.235,0.345-13.939,0.832-18.877c0.771-7.829,1.629-7.488,1.91-7.376
							c0.282,0.112,1.139,0.453,1.799,8.852c0.417,5.297,0.619,12.2,0.569,19.434c-0.05,7.235-0.346,13.939-0.832,18.877
							c-0.772,7.829-1.629,7.489-1.911,7.376c-0.281-0.112-1.139-0.453-1.799-8.852C521.524,157.316,521.322,150.415,521.372,143.18
							z"/>
					</g>
				</mask>
				<path mask="url(#SVGID_20_)" fill="#FFFFFF" d="M523.741,171.252c-1.318-0.524-2.305-13.063-2.202-28.006
					c0.104-14.943,1.256-26.631,2.574-26.107c1.319,0.525,2.304,13.063,2.201,28.006
					C526.211,160.088,525.059,171.777,523.741,171.252z"/>
			</g>
			<g>
				<defs>
					<filter id="Adobe_OpacityMaskFilter_7_" filterUnits="userSpaceOnUse" x="0.91" y="341.514" width="128.685" height="163.934">
						<feColorMatrix  type="matrix" values="1 0 0 0 0  0 1 0 0 0  0 0 1 0 0  0 0 0 1 0"/>
					</filter>
				</defs>
				<mask maskUnits="userSpaceOnUse" x="0.91" y="341.514" width="128.685" height="163.934" id="SVGID_22_">
					<g filter="url(#Adobe_OpacityMaskFilter_7_)">
						
							<radialGradient id="SVGID_23_" cx="2052.3062" cy="2334.79" r="106.3999" gradientTransform="matrix(-0.1257 -0.7723 0.5979 0.0963 -1072.7437 1783.6372)" gradientUnits="userSpaceOnUse">
							<stop  offset="0" style="stop-color:#FFFFFF"/>
							<stop  offset="0.0074" style="stop-color:#F6F6F6"/>
							<stop  offset="0.0477" style="stop-color:#C8C8C8"/>
							<stop  offset="0.0931" style="stop-color:#9D9D9D"/>
							<stop  offset="0.1419" style="stop-color:#777777"/>
							<stop  offset="0.195" style="stop-color:#575757"/>
							<stop  offset="0.2537" style="stop-color:#3B3B3B"/>
							<stop  offset="0.32" style="stop-color:#252525"/>
							<stop  offset="0.3974" style="stop-color:#141414"/>
							<stop  offset="0.4931" style="stop-color:#090909"/>
							<stop  offset="0.6274" style="stop-color:#020202"/>
							<stop  offset="1" style="stop-color:#000000"/>
						</radialGradient>
						<path fill="url(#SVGID_23_)" d="M128.862,433.713c7.372,45.314-15.166,77.588-50.24,71.945s-69.607-47.1-76.979-92.412
							c-7.371-45.313,15.166-77.588,50.241-71.943C86.958,346.945,121.49,388.4,128.862,433.713z"/>
					</g>
				</mask>
				<path mask="url(#SVGID_22_)" fill="#FFFFFF" d="M52.021,342.15c34.769,5.594,68.878,46.541,76.186,91.457
					c7.308,44.918-14.955,76.797-49.723,71.203S9.606,458.27,2.299,413.352C-5.009,368.434,17.253,336.557,52.021,342.15z"/>
				<defs>
					<filter id="Adobe_OpacityMaskFilter_8_" filterUnits="userSpaceOnUse" x="42.859" y="391.603" width="42.844" height="61.424">
						<feColorMatrix  type="matrix" values="1 0 0 0 0  0 1 0 0 0  0 0 1 0 0  0 0 0 1 0"/>
					</filter>
				</defs>
				<mask maskUnits="userSpaceOnUse" x="42.859" y="391.603" width="42.844" height="61.424" id="SVGID_24_">
					<g filter="url(#Adobe_OpacityMaskFilter_8_)">
						
							<radialGradient id="SVGID_25_" cx="419.5776" cy="102403.875" r="57.6559" gradientTransform="matrix(-0.4655 -0.6691 0.0396 -0.0398 -3795.5989 4778.7261)" gradientUnits="userSpaceOnUse">
							<stop  offset="0" style="stop-color:#8F8F8F"/>
							<stop  offset="0.1651" style="stop-color:#636363"/>
							<stop  offset="0.3304" style="stop-color:#404040"/>
							<stop  offset="0.497" style="stop-color:#242424"/>
							<stop  offset="0.6639" style="stop-color:#101010"/>
							<stop  offset="0.8312" style="stop-color:#040404"/>
							<stop  offset="1" style="stop-color:#000000"/>
						</radialGradient>
						<path fill="url(#SVGID_25_)" d="M66.459,420.125c5.702,8.193,10.852,16.111,14.5,22.295
							c5.785,9.803,5.054,10.537,4.814,10.779c-0.24,0.24-0.971,0.975-7.976-7.602c-4.419-5.408-9.993-12.9-15.694-21.096
							c-5.702-8.193-10.851-16.111-14.5-22.293c-5.785-9.803-5.054-10.539-4.814-10.779c0.24-0.242,0.971-0.975,7.976,7.602
							C55.184,404.439,60.758,411.932,66.459,420.125z"/>
					</g>
				</mask>
				<path mask="url(#SVGID_24_)" fill="#FFFFFF" d="M42.958,391.672c1.124-1.131,11.582,11.674,23.358,28.596
					c11.776,16.924,20.413,31.559,19.289,32.689c-1.125,1.129-11.583-11.674-23.359-28.598
					C50.469,407.436,41.833,392.801,42.958,391.672z"/>
				<defs>
					<filter id="Adobe_OpacityMaskFilter_9_" filterUnits="userSpaceOnUse" x="48.982" y="417.033" width="30.598" height="10.562">
						<feColorMatrix  type="matrix" values="1 0 0 0 0  0 1 0 0 0  0 0 1 0 0  0 0 0 1 0"/>
					</filter>
				</defs>
				<mask maskUnits="userSpaceOnUse" x="48.982" y="417.033" width="30.598" height="10.562" id="SVGID_26_">
					<g filter="url(#Adobe_OpacityMaskFilter_9_)">
						
							<radialGradient id="SVGID_27_" cx="-1440.145" cy="94455.7188" r="31.7107" gradientTransform="matrix(-0.6088 -0.1924 -0.0051 -0.0753 -330.754 7257.7451)" gradientUnits="userSpaceOnUse">
							<stop  offset="0" style="stop-color:#8F8F8F"/>
							<stop  offset="0.1651" style="stop-color:#636363"/>
							<stop  offset="0.3304" style="stop-color:#404040"/>
							<stop  offset="0.497" style="stop-color:#242424"/>
							<stop  offset="0.6639" style="stop-color:#101010"/>
							<stop  offset="0.8312" style="stop-color:#040404"/>
							<stop  offset="1" style="stop-color:#000000"/>
						</radialGradient>
						<path fill="url(#SVGID_27_)" d="M64.131,420.033c4.091,1.293,7.952,2.729,10.873,4.045c4.63,2.088,4.68,2.854,4.697,3.104
							c0.017,0.252,0.067,1.016-4.479,0.207c-2.867-0.51-6.699-1.504-10.79-2.795c-4.091-1.291-7.952-2.729-10.873-4.045
							c-4.63-2.086-4.681-2.852-4.697-3.104c-0.017-0.25-0.066-1.016,4.479-0.205C56.208,417.75,60.04,418.742,64.131,420.033z"/>
					</g>
				</mask>
				<path mask="url(#SVGID_26_)" fill="#FFFFFF" d="M48.983,417.484c-0.078-1.178,6.708,0.031,15.158,2.699
					c8.45,2.668,15.361,5.783,15.439,6.961c0.078,1.176-6.708-0.033-15.158-2.699C55.973,421.777,49.061,418.66,48.983,417.484z"/>
				<defs>
					
						<filter id="Adobe_OpacityMaskFilter_10_" filterUnits="userSpaceOnUse" x="46.018" y="403.793" width="36.527" height="37.043">
						<feColorMatrix  type="matrix" values="1 0 0 0 0  0 1 0 0 0  0 0 1 0 0  0 0 0 1 0"/>
					</filter>
				</defs>
				<mask maskUnits="userSpaceOnUse" x="46.018" y="403.793" width="36.527" height="37.043" id="SVGID_28_">
					<g filter="url(#Adobe_OpacityMaskFilter_10_)">
						
							<radialGradient id="SVGID_29_" cx="-2121.7363" cy="75288.0391" r="57.6809" gradientTransform="matrix(-0.3954 0.3972 -0.0466 -0.067 2733.77 6309.3672)" gradientUnits="userSpaceOnUse">
							<stop  offset="0" style="stop-color:#8F8F8F"/>
							<stop  offset="0.1651" style="stop-color:#636363"/>
							<stop  offset="0.3304" style="stop-color:#404040"/>
							<stop  offset="0.497" style="stop-color:#242424"/>
							<stop  offset="0.6639" style="stop-color:#101010"/>
							<stop  offset="0.8312" style="stop-color:#040404"/>
							<stop  offset="1" style="stop-color:#000000"/>
						</radialGradient>
						<path fill="url(#SVGID_29_)" d="M61.716,418.627c4.84-4.865,9.642-9.082,13.52-11.871c6.148-4.424,7.009-3.188,7.292-2.779
							c0.283,0.406,1.144,1.641-3.567,8.133c-2.971,4.094-7.273,9.025-12.114,13.893c-4.84,4.865-9.643,9.08-13.521,11.869
							c-6.148,4.424-7.008,3.188-7.291,2.781s-1.144-1.643,3.567-8.133C52.573,428.426,56.875,423.492,61.716,418.627z"/>
					</g>
				</mask>
				<path mask="url(#SVGID_28_)" fill="#FFFFFF" d="M46.178,440.51c-1.324-1.902,5.708-11.592,15.706-21.641
					s19.177-16.652,20.501-14.75c1.323,1.902-5.708,11.592-15.706,21.641C56.68,435.809,47.502,442.412,46.178,440.51z"/>
				<defs>
					<filter id="Adobe_OpacityMaskFilter_11_" filterUnits="userSpaceOnUse" x="61.252" y="395.305" width="6.058" height="54.02">
						<feColorMatrix  type="matrix" values="1 0 0 0 0  0 1 0 0 0  0 0 1 0 0  0 0 0 1 0"/>
					</filter>
				</defs>
				<mask maskUnits="userSpaceOnUse" x="61.252" y="395.305" width="6.058" height="54.02" id="SVGID_30_">
					<g filter="url(#Adobe_OpacityMaskFilter_11_)">
						
							<radialGradient id="SVGID_31_" cx="-1289.1714" cy="57119.4102" r="45.1609" gradientTransform="matrix(0.0497 0.754 -0.0608 -0.0192 3601.2129 2491.0422)" gradientUnits="userSpaceOnUse">
							<stop  offset="0" style="stop-color:#8F8F8F"/>
							<stop  offset="0.1651" style="stop-color:#636363"/>
							<stop  offset="0.3304" style="stop-color:#404040"/>
							<stop  offset="0.497" style="stop-color:#242424"/>
							<stop  offset="0.6639" style="stop-color:#101010"/>
							<stop  offset="0.8312" style="stop-color:#040404"/>
							<stop  offset="1" style="stop-color:#000000"/>
						</radialGradient>
						<path fill="url(#SVGID_31_)" d="M61.659,421.486c-0.476-7.219-0.668-13.928-0.542-18.889c0.201-7.863,1.081-7.586,1.37-7.494
							c0.29,0.092,1.169,0.369,2.438,8.697c0.8,5.254,1.503,12.123,1.979,19.342c0.476,7.219,0.668,13.926,0.542,18.887
							c-0.201,7.865-1.081,7.588-1.37,7.496c-0.289-0.092-1.168-0.369-2.437-8.697C62.837,435.574,62.135,428.705,61.659,421.486z"
							/>
					</g>
				</mask>
				<path mask="url(#SVGID_30_)" fill="#FFFFFF" d="M66.062,449.313c-1.354-0.428-3.248-12.861-4.231-27.771
					c-0.982-14.912-0.683-26.652,0.671-26.225c1.353,0.426,3.247,12.861,4.23,27.771S67.415,449.74,66.062,449.313z"/>
			</g>
			<g>
				<defs>
					
						<filter id="Adobe_OpacityMaskFilter_12_" filterUnits="userSpaceOnUse" x="-10.044" y="87.673" width="122.368" height="116.065">
						<feColorMatrix  type="matrix" values="1 0 0 0 0  0 1 0 0 0  0 0 1 0 0  0 0 0 1 0"/>
					</filter>
				</defs>
				<mask maskUnits="userSpaceOnUse" x="-10.044" y="87.673" width="122.368" height="116.065" id="SVGID_32_">
					<g filter="url(#Adobe_OpacityMaskFilter_12_)">
						
							<radialGradient id="SVGID_33_" cx="2362.5229" cy="2773.0752" r="106.396" gradientTransform="matrix(-0.5 -0.3349 0.2959 -0.4376 411.8481 2150.4121)" gradientUnits="userSpaceOnUse">
							<stop  offset="0" style="stop-color:#FFFFFF"/>
							<stop  offset="0.0074" style="stop-color:#F6F6F6"/>
							<stop  offset="0.0477" style="stop-color:#C8C8C8"/>
							<stop  offset="0.0931" style="stop-color:#9D9D9D"/>
							<stop  offset="0.1419" style="stop-color:#777777"/>
							<stop  offset="0.195" style="stop-color:#575757"/>
							<stop  offset="0.2537" style="stop-color:#3B3B3B"/>
							<stop  offset="0.32" style="stop-color:#252525"/>
							<stop  offset="0.3974" style="stop-color:#141414"/>
							<stop  offset="0.4931" style="stop-color:#090909"/>
							<stop  offset="0.6274" style="stop-color:#020202"/>
							<stop  offset="1" style="stop-color:#000000"/>
						</radialGradient>
						<path fill="url(#SVGID_33_)" d="M82.619,99.143c29.332,19.649,39.074,56.523,21.716,82.198
							c-17.357,25.675-55.342,30.577-84.674,10.927c-29.332-19.648-39.074-56.522-21.716-82.197
							C15.302,84.396,53.286,79.494,82.619,99.143z"/>
					</g>
				</mask>
				<path mask="url(#SVGID_32_)" fill="#FFFFFF" d="M-1.507,110.438c17.207-25.451,54.726-30.293,83.801-10.816
					c29.076,19.478,38.698,55.9,21.492,81.351c-17.206,25.451-54.725,30.293-83.801,10.815
					C-9.091,172.311-18.713,135.889-1.507,110.438z"/>
				<defs>
					<filter id="Adobe_OpacityMaskFilter_13_" filterUnits="userSpaceOnUse" x="23.677" y="143.002" width="52.788" height="5.684">
						<feColorMatrix  type="matrix" values="1 0 0 0 0  0 1 0 0 0  0 0 1 0 0  0 0 0 1 0"/>
					</filter>
				</defs>
				<mask maskUnits="userSpaceOnUse" x="23.677" y="143.002" width="52.788" height="5.684" id="SVGID_34_">
					<g filter="url(#Adobe_OpacityMaskFilter_13_)">
						
							<radialGradient id="SVGID_35_" cx="393.4761" cy="107754.1328" r="57.6569" gradientTransform="matrix(-0.5762 0.0035 -0.0073 -0.0552 1063.3984 6092.4951)" gradientUnits="userSpaceOnUse">
							<stop  offset="0" style="stop-color:#8F8F8F"/>
							<stop  offset="0.1651" style="stop-color:#636363"/>
							<stop  offset="0.3304" style="stop-color:#404040"/>
							<stop  offset="0.497" style="stop-color:#242424"/>
							<stop  offset="0.6639" style="stop-color:#101010"/>
							<stop  offset="0.8312" style="stop-color:#040404"/>
							<stop  offset="1" style="stop-color:#000000"/>
						</radialGradient>
						<path fill="url(#SVGID_35_)" d="M49.671,142.808c7.057-0.044,13.731,0.21,18.794,0.716c8.027,0.801,8.162,1.82,8.206,2.155
							s0.178,1.353-7.625,2.253c-4.921,0.568-11.518,0.904-18.575,0.948c-7.057,0.044-13.731-0.21-18.794-0.716
							c-8.026-0.801-8.161-1.82-8.205-2.155c-0.044-0.334-0.178-1.353,7.625-2.253C36.018,143.188,42.614,142.852,49.671,142.808z"
							/>
					</g>
				</mask>
				<path mask="url(#SVGID_34_)" fill="#FFFFFF" d="M23.68,146.008c-0.207-1.566,11.441-2.91,26.017-3.001
					c14.575-0.09,26.559,1.106,26.766,2.672c0.206,1.567-11.442,2.91-26.018,3.001C35.87,148.771,23.887,147.575,23.68,146.008z"/>
				<defs>
					
						<filter id="Adobe_OpacityMaskFilter_14_" filterUnits="userSpaceOnUse" x="41.027" y="135.928" width="18.088" height="19.832">
						<feColorMatrix  type="matrix" values="1 0 0 0 0  0 1 0 0 0  0 0 1 0 0  0 0 0 1 0"/>
					</filter>
				</defs>
				<mask maskUnits="userSpaceOnUse" x="41.027" y="135.928" width="18.088" height="19.832" id="SVGID_36_">
					<g filter="url(#Adobe_OpacityMaskFilter_14_)">
						
							<radialGradient id="SVGID_37_" cx="-1831.2275" cy="98004.5938" r="31.6897" gradientTransform="matrix(-0.3563 0.3921 -0.0459 -0.0386 3896.0156 4646.8452)" gradientUnits="userSpaceOnUse">
							<stop  offset="0" style="stop-color:#8F8F8F"/>
							<stop  offset="0.1651" style="stop-color:#636363"/>
							<stop  offset="0.3304" style="stop-color:#404040"/>
							<stop  offset="0.497" style="stop-color:#242424"/>
							<stop  offset="0.6639" style="stop-color:#101010"/>
							<stop  offset="0.8312" style="stop-color:#040404"/>
							<stop  offset="1" style="stop-color:#000000"/>
						</radialGradient>
						<path fill="url(#SVGID_37_)" d="M48.684,144.673c2.393-2.635,4.778-4.999,6.716-6.656c3.073-2.627,3.538-2.235,3.691-2.106
							c0.153,0.129,0.618,0.521-1.677,3.805c-1.447,2.071-3.563,4.663-5.956,7.298c-2.393,2.635-4.778,4.999-6.716,6.656
							c-3.073,2.627-3.538,2.234-3.691,2.106c-0.153-0.129-0.618-0.521,1.677-3.805C44.175,149.9,46.291,147.309,48.684,144.673z"/>
					</g>
				</mask>
				<path mask="url(#SVGID_36_)" fill="#FFFFFF" d="M41.122,155.698c-0.716-0.604,2.71-5.505,7.653-10.948
					c4.943-5.442,9.53-9.364,10.246-8.761c0.716,0.604-2.71,5.505-7.653,10.948C46.424,152.379,41.837,156.302,41.122,155.698z"/>
				<defs>
					<filter id="Adobe_OpacityMaskFilter_15_" filterUnits="userSpaceOnUse" x="45.613" y="120.611" width="8.916" height="50.464">
						<feColorMatrix  type="matrix" values="1 0 0 0 0  0 1 0 0 0  0 0 1 0 0  0 0 0 1 0"/>
					</filter>
				</defs>
				<mask maskUnits="userSpaceOnUse" x="45.613" y="120.611" width="8.916" height="50.464" id="SVGID_38_">
					<g filter="url(#Adobe_OpacityMaskFilter_15_)">
						
							<radialGradient id="SVGID_39_" cx="-2668.3687" cy="75048.5313" r="57.671" gradientTransform="matrix(0.0725 0.551 -0.0577 4.000000e-004 4573.8271 1586.0953)" gradientUnits="userSpaceOnUse">
							<stop  offset="0" style="stop-color:#8F8F8F"/>
							<stop  offset="0.1651" style="stop-color:#636363"/>
							<stop  offset="0.3304" style="stop-color:#404040"/>
							<stop  offset="0.497" style="stop-color:#242424"/>
							<stop  offset="0.6639" style="stop-color:#101010"/>
							<stop  offset="0.8312" style="stop-color:#040404"/>
							<stop  offset="1" style="stop-color:#000000"/>
						</radialGradient>
						<path fill="url(#SVGID_39_)" d="M46.896,145.863c-0.889-6.747-1.417-13.093-1.485-17.869
							c-0.108-7.572,0.958-7.579,1.308-7.582c0.35-0.002,1.415-0.009,3.302,7.553c1.19,4.77,2.335,11.111,3.225,17.858
							c0.89,6.747,1.417,13.093,1.485,17.87c0.108,7.573-0.957,7.58-1.307,7.582s-1.415,0.009-3.303-7.553
							C48.931,158.953,47.785,152.61,46.896,145.863z"/>
					</g>
				</mask>
				<path mask="url(#SVGID_38_)" fill="#FFFFFF" d="M53.398,171.076c-1.639,0.01-4.457-11.278-6.294-25.213
					s-1.998-25.241-0.359-25.251c1.638-0.01,4.456,11.279,6.294,25.214C54.875,159.761,55.037,171.065,53.398,171.076z"/>
				<defs>
					
						<filter id="Adobe_OpacityMaskFilter_16_" filterUnits="userSpaceOnUse" x="33.579" y="131.895" width="32.984" height="27.897">
						<feColorMatrix  type="matrix" values="1 0 0 0 0  0 1 0 0 0  0 0 1 0 0  0 0 0 1 0"/>
					</filter>
				</defs>
				<mask maskUnits="userSpaceOnUse" x="33.579" y="131.895" width="32.984" height="27.897" id="SVGID_40_">
					<g filter="url(#Adobe_OpacityMaskFilter_16_)">
						
							<radialGradient id="SVGID_41_" cx="-1654.7798" cy="53097.7031" r="45.1337" gradientTransform="matrix(0.4588 0.3871 -0.0356 0.0392 2699.5618 -1295.0211)" gradientUnits="userSpaceOnUse">
							<stop  offset="0" style="stop-color:#8F8F8F"/>
							<stop  offset="0.1651" style="stop-color:#636363"/>
							<stop  offset="0.3304" style="stop-color:#404040"/>
							<stop  offset="0.497" style="stop-color:#242424"/>
							<stop  offset="0.6639" style="stop-color:#101010"/>
							<stop  offset="0.8312" style="stop-color:#040404"/>
							<stop  offset="1" style="stop-color:#000000"/>
						</radialGradient>
						<path fill="url(#SVGID_41_)" d="M48.537,147.533c-4.393-3.705-8.375-7.354-11.211-10.274
							c-4.497-4.629-3.982-5.195-3.813-5.382c0.169-0.186,0.684-0.753,6.041,2.93c3.379,2.322,7.659,5.643,12.052,9.348
							c4.393,3.706,8.374,7.354,11.21,10.273c4.497,4.629,3.983,5.196,3.813,5.383c-0.169,0.186-0.684,0.752-6.041-2.93
							C57.209,154.558,52.93,151.238,48.537,147.533z"/>
					</g>
				</mask>
				<path mask="url(#SVGID_40_)" fill="#FFFFFF" d="M66.5,159.702c-0.792,0.872-8.789-4.626-17.862-12.279
					c-9.073-7.654-15.787-14.565-14.995-15.437c0.792-0.872,8.789,4.626,17.862,12.28C60.578,151.918,67.291,158.83,66.5,159.702z"
					/>
			</g>
		</g>
	</g>
</g>
</svg>
